<svg xmlns="http://www.w3.org/2000/svg" width="340" height="120" viewBox="0 0 340 120">
  <defs>
    <style>
      @import url('https://fonts.googleapis.com/css2?family=Jua&amp;family=Noto+Sans+KR:wght@500&amp;display=swap');
      .brand { font-family:'Jua', sans-serif; }
      .sub { font-family:'Noto Sans KR', sans-serif; font-weight:500; }
    </style>
    <clipPath id="circ"><circle cx="60" cy="60" r="54"/></clipPath>
  </defs>

  <!-- 배경 (네이비) -->
  <rect width="340" height="120" fill="#0d2461"/>

  <!-- 심볼 -->
  <svg x="10" y="10" width="100" height="100" viewBox="0 0 120 120">
    <circle cx="60" cy="60" r="54" fill="white"/>
    <line x1="6" y1="80" x2="114" y2="80" stroke="rgba(0,0,0,0.1)" stroke-width="1" clip-path="url(#circ)"/>
    <path d="M42 80 A18 18 0 0 1 78 80" fill="none" stroke="#0d2461" stroke-width="1.8" clip-path="url(#circ)"/>
    <line x1="60" y1="55" x2="60" y2="50" stroke="#0d2461" stroke-width="1.6" stroke-linecap="round"/>
    <line x1="72" y1="59" x2="76" y2="55" stroke="#0d2461" stroke-width="1.6" stroke-linecap="round"/>
    <line x1="48" y1="59" x2="44" y2="55" stroke="#0d2461" stroke-width="1.6" stroke-linecap="round"/>
    <rect x="52" y="40" width="16" height="40" rx="1.5" fill="none" stroke="#0d2461" stroke-width="1.8" clip-path="url(#circ)"/>
    <polygon points="60,31 68,40 52,40" fill="#0d2461" clip-path="url(#circ)"/>
    <rect x="55" y="47" width="4" height="4" rx="0.5" fill="#0d2461"/>
    <rect x="61" y="47" width="4" height="4" rx="0.5" fill="#0d2461"/>
    <rect x="55" y="56" width="4" height="4" rx="0.5" fill="#0d2461"/>
    <rect x="61" y="56" width="4" height="4" rx="0.5" fill="#0d2461"/>
    <rect x="36" y="53" width="14" height="27" rx="1" fill="none" stroke="#0d2461" stroke-width="1.6" clip-path="url(#circ)"/>
    <rect x="39" y="57" width="3" height="3" rx="0.4" fill="#0d2461"/>
    <rect x="44" y="57" width="3" height="3" rx="0.4" fill="#0d2461"/>
    <rect x="39" y="64" width="3" height="3" rx="0.4" fill="#0d2461"/>
    <rect x="44" y="64" width="3" height="3" rx="0.4" fill="#0d2461"/>
    <rect x="70" y="56" width="14" height="24" rx="1" fill="none" stroke="#0d2461" stroke-width="1.6" clip-path="url(#circ)"/>
    <rect x="73" y="60" width="3" height="3" rx="0.4" fill="#0d2461"/>
    <rect x="78" y="60" width="3" height="3" rx="0.4" fill="#0d2461"/>
    <rect x="73" y="67" width="3" height="3" rx="0.4" fill="#0d2461"/>
    <rect x="78" y="67" width="3" height="3" rx="0.4" fill="#0d2461"/>
    <circle cx="60" cy="60" r="54" stroke="white" stroke-width="1.8" fill="none"/>
    <circle cx="60" cy="60" r="50" stroke="rgba(255,255,255,0.2)" stroke-width="0.8" fill="none"/>
  </svg>

  <!-- 텍스트 (흰색) -->
  <text class="brand" x="125" y="50" font-size="27" fill="white" letter-spacing="1">가리봉2구역</text>
  <text class="sub" x="125" y="74" font-size="12" fill="rgba(255,255,255,0.95)" letter-spacing="0.2">재개발정비사업조합</text>
</svg>
