<svg xmlns="http://www.w3.org/2000/svg" width="90mm" height="50mm" viewBox="0 0 900 500">
  <defs>
    <style>
      @import url('https://fonts.googleapis.com/css2?family=Jua&amp;family=Noto+Sans+KR:wght@400;500;900&amp;display=swap');
      .brand { font-family:'Jua', sans-serif; }
      .kr { font-family:'Noto Sans KR', sans-serif; }
    </style>
  </defs>
  <rect width="900" height="500" fill="#ffffff"/>
  <!-- 상단 조합명 -->
  <text class="brand" x="450" y="92" font-size="56" fill="#1a2a6c" text-anchor="middle" letter-spacing="0.5">가리봉2구역 재개발정비사업조합</text>
  <line x1="60" y1="120" x2="840" y2="120" stroke="#c9d0de" stroke-width="2"/>
  <!-- 건물 스카이라인 -->
  <g transform="translate(60,215) scale(1.55)" fill="none" stroke="#3a3a3a" stroke-width="1.3" stroke-linejoin="round">
    <path d="M6 126 L6 74 L18 74 L18 64 L40 64 L40 74 L54 74 L54 126"/>
    <line x1="12" y1="82" x2="12" y2="120"/><line x1="26" y1="72" x2="26" y2="120"/>
    <line x1="34" y1="72" x2="34" y2="120"/><line x1="48" y1="82" x2="48" y2="120"/>
    <rect x="8" y="86" width="3" height="4"/><rect x="14" y="86" width="3" height="4"/>
    <rect x="8" y="94" width="3" height="4"/><rect x="14" y="94" width="3" height="4"/>
    <rect x="8" y="102" width="3" height="4"/><rect x="14" y="102" width="3" height="4"/>
    <rect x="43" y="86" width="3" height="4"/><rect x="49" y="86" width="3" height="4"/>
    <rect x="43" y="94" width="3" height="4"/><rect x="49" y="94" width="3" height="4"/>
    <rect x="43" y="102" width="3" height="4"/><rect x="49" y="102" width="3" height="4"/>
    <path d="M64 126 L64 40 L70 32 L92 32 L98 40 L98 126"/><line x1="81" y1="32" x2="81" y2="40"/>
    <rect x="68" y="46" width="6" height="7"/><rect x="84" y="46" width="6" height="7"/>
    <rect x="68" y="59" width="6" height="7"/><rect x="84" y="59" width="6" height="7"/>
    <rect x="68" y="72" width="6" height="7"/><rect x="84" y="72" width="6" height="7"/>
    <rect x="68" y="85" width="6" height="7"/><rect x="84" y="85" width="6" height="7"/>
    <rect x="68" y="98" width="6" height="7"/><rect x="84" y="98" width="6" height="7"/>
    <path d="M108 126 L108 58 L142 58 L142 126"/><line x1="125" y1="58" x2="125" y2="120"/>
    <rect x="112" y="66" width="6" height="6"/><rect x="131" y="66" width="6" height="6"/>
    <rect x="112" y="78" width="6" height="6"/><rect x="131" y="78" width="6" height="6"/>
    <rect x="112" y="90" width="6" height="6"/><rect x="131" y="90" width="6" height="6"/>
    <rect x="112" y="102" width="6" height="6"/><rect x="131" y="102" width="6" height="6"/>
    <path d="M150 126 L150 76 L176 76 L176 126"/><line x1="163" y1="76" x2="163" y2="120"/>
    <rect x="154" y="84" width="5" height="5"/><rect x="166" y="84" width="5" height="5"/>
    <rect x="154" y="96" width="5" height="5"/><rect x="166" y="96" width="5" height="5"/>
    <rect x="154" y="108" width="5" height="5"/><rect x="166" y="108" width="5" height="5"/>
    <ellipse cx="194" cy="104" rx="10" ry="15"/><line x1="194" y1="119" x2="194" y2="126"/>
    <ellipse cx="216" cy="109" rx="8" ry="11"/><line x1="216" y1="120" x2="216" y2="126"/>
    <line x1="0" y1="126" x2="236" y2="126"/>
  </g>
  <!-- 인물 정보 -->
  <text class="kr" x="468" y="298" font-size="26" fill="#333">이사</text>
  <text class="kr" x="538" y="303" font-size="50" font-weight="900" fill="#111" letter-spacing="12">서 훈</text>
  <text class="brand" x="468" y="372" font-size="30" fill="#1a2a6c">P</text>
  <text class="kr" x="500" y="372" font-size="27" fill="#222">010.5393.7006</text>
  <text class="brand" x="468" y="414" font-size="30" fill="#1a2a6c">E</text>
  <text class="kr" x="500" y="414" font-size="27" fill="#222">sh4242393@naver.com</text>
</svg>

