<svg xmlns="http://www.w3.org/2000/svg" width="90mm" height="50mm" viewBox="0 0 900 500">
<defs><style>@import url('https://fonts.googleapis.com/css2?family=Jua&amp;family=Noto+Sans+KR:wght@400;500;700;900&amp;display=swap');.brand{font-family:'Jua',sans-serif;}text{font-family:'Noto Sans KR',sans-serif;}</style><clipPath id='bsc'><circle cx='60' cy='60' r='54'/></clipPath></defs>
<rect width="900" height="500" fill="#ffffff"/>
  <g transform="translate(-12,-26)">
  <g transform="translate(165,158) scale(1.35)">
    <svg x="0" y="0" width="120" height="120" viewBox="0 0 120 120">
      <circle cx="60" cy="60" r="54" fill="#0d2461"/>
      <line x1="6" y1="80" x2="114" y2="80" stroke="rgba(255,255,255,0.25)" stroke-width="1" clip-path="url(#bsc)"/>
      <path d="M42 80 A18 18 0 0 1 78 80" fill="none" stroke="white" stroke-width="1.8" clip-path="url(#bsc)"/>
      <line x1="60" y1="55" x2="60" y2="50" stroke="white" stroke-width="1.6" stroke-linecap="round"/>
      <line x1="72" y1="59" x2="76" y2="55" stroke="white" stroke-width="1.6" stroke-linecap="round"/>
      <line x1="48" y1="59" x2="44" y2="55" stroke="white" stroke-width="1.6" stroke-linecap="round"/>
      <rect x="52" y="40" width="16" height="40" rx="1.5" fill="none" stroke="white" stroke-width="1.8" clip-path="url(#bsc)"/>
      <polygon points="60,31 68,40 52,40" fill="white" clip-path="url(#bsc)"/>
      <rect x="55" y="47" width="4" height="4" rx="0.5" fill="white"/><rect x="61" y="47" width="4" height="4" rx="0.5" fill="white"/>
      <rect x="55" y="56" width="4" height="4" rx="0.5" fill="white"/><rect x="61" y="56" width="4" height="4" rx="0.5" fill="white"/>
      <rect x="36" y="53" width="14" height="27" rx="1" fill="none" stroke="white" stroke-width="1.6" clip-path="url(#bsc)"/>
      <rect x="39" y="57" width="3" height="3" rx="0.4" fill="white"/><rect x="44" y="57" width="3" height="3" rx="0.4" fill="white"/>
      <rect x="39" y="64" width="3" height="3" rx="0.4" fill="white"/><rect x="44" y="64" width="3" height="3" rx="0.4" fill="white"/>
      <rect x="70" y="56" width="14" height="24" rx="1" fill="none" stroke="white" stroke-width="1.6" clip-path="url(#bsc)"/>
      <rect x="73" y="60" width="3" height="3" rx="0.4" fill="white"/><rect x="78" y="60" width="3" height="3" rx="0.4" fill="white"/>
      <rect x="73" y="67" width="3" height="3" rx="0.4" fill="white"/><rect x="78" y="67" width="3" height="3" rx="0.4" fill="white"/>
      <circle cx="60" cy="60" r="54" stroke="white" stroke-width="1.8" fill="none"/>
      <circle cx="60" cy="60" r="50" stroke="rgba(255,255,255,0.15)" stroke-width="0.8" fill="none"/>
    </svg>
  </g>
  <text class="brand" x="350" y="228" font-size="62" fill="#0d2461" letter-spacing="2">가리봉2구역</text>
  <text x="352" y="282" font-size="33" font-weight="600" fill="#0d2461" letter-spacing="0.4">재개발정비사업조합</text>
  <line x1="352" y1="305" x2="745" y2="305" stroke="#d4d8e0" stroke-width="3"/>
  <text x="352" y="346" font-size="25" font-weight="500" fill="#4b5563">새벽이 밝아오는 가리봉, 함께 만드는 내일</text>
  <text x="352" y="382" font-size="21" font-weight="400" fill="#7a8290">서울 구로구 구로동로 17-1, 3층</text>
  </g>
</svg>
