<svg xmlns="http://www.w3.org/2000/svg" width="90mm" height="50mm" viewBox="0 0 900 500">
<defs><style>@import url('https://fonts.googleapis.com/css2?family=Jua&amp;family=Noto+Sans+KR:wght@400;500;700;900&amp;display=swap');.brand{font-family:'Jua',sans-serif;}text{font-family:'Noto Sans KR',sans-serif;}</style><clipPath id='bsc'><circle cx='60' cy='60' r='54'/></clipPath></defs>
<rect width="900" height="500" fill="#ffffff"/>
<text class="brand" x="450" y="70" font-size="50" fill="#1a2a6c" text-anchor="middle" letter-spacing="0.5">가리봉2구역 재개발정비사업조합</text>
<line x1="60" y1="100" x2="840" y2="100" stroke="#c9d0de" stroke-width="2"/>
  <svg x="78" y="172" width="228" height="162" viewBox="16 2 174 124" fill="none" stroke="#16235c" stroke-width="1.7" stroke-linejoin="round" stroke-linecap="round">
    <g stroke="#f59e0b" stroke-width="2"><path d="M137 44 A15 15 0 0 1 167 44"/><line x1="152" y1="26" x2="152" y2="17"/><line x1="140" y1="32" x2="135" y2="25"/><line x1="164" y1="32" x2="169" y2="25"/></g>
    <path d="M114 28 L128 20 L128 116 L114 124 Z" fill="#16235c" fill-opacity="0.13"/><path d="M74 28 L88 20 L128 20 L114 28 Z" fill="#eef1f8"/><rect x="74" y="28" width="40" height="96" fill="#ffffff"/>
    <path d="M84 14 L90 10 L110 10 L104 14 Z" fill="#eef1f8"/><rect x="84" y="14" width="20" height="14" fill="#ffffff"/><line x1="94" y1="14" x2="94" y2="5"/>
    <g stroke="#aab3cf" stroke-width="0.6"><line x1="74" y1="38" x2="114" y2="38"/><line x1="74" y1="48" x2="114" y2="48"/><line x1="74" y1="58" x2="114" y2="58"/><line x1="74" y1="68" x2="114" y2="68"/><line x1="74" y1="78" x2="114" y2="78"/><line x1="74" y1="88" x2="114" y2="88"/><line x1="74" y1="98" x2="114" y2="98"/><line x1="74" y1="108" x2="114" y2="108"/><line x1="87" y1="28" x2="87" y2="124"/><line x1="101" y1="28" x2="101" y2="124"/><line x1="114" y1="48" x2="128" y2="40"/><line x1="114" y1="70" x2="128" y2="62"/></g>
    <path d="M76 64 L82 60 L82 120 L76 124 Z" fill="#16235c" fill-opacity="0.11"/><path d="M50 64 L56 60 L82 60 L76 64 Z" fill="#eef1f8"/><rect x="50" y="64" width="26" height="60" fill="#ffffff"/>
    <g stroke="#aab3cf" stroke-width="0.6"><line x1="50" y1="78" x2="76" y2="78"/><line x1="50" y1="92" x2="76" y2="92"/><line x1="50" y1="106" x2="76" y2="106"/><line x1="63" y1="64" x2="63" y2="124"/></g>
    <path d="M138 56 L144 52 L144 120 L138 124 Z" fill="#16235c" fill-opacity="0.11"/><path d="M112 56 L118 52 L144 52 L138 56 Z" fill="#eef1f8"/><rect x="112" y="56" width="26" height="68" fill="#ffffff"/>
    <g stroke="#aab3cf" stroke-width="0.6"><line x1="112" y1="70" x2="138" y2="70"/><line x1="112" y1="84" x2="138" y2="84"/><line x1="112" y1="98" x2="138" y2="98"/><line x1="112" y1="112" x2="138" y2="112"/><line x1="125" y1="56" x2="125" y2="124"/></g>
    <rect x="32" y="98" width="20" height="26" fill="#ffffff"/><g stroke="#aab3cf" stroke-width="0.6"><line x1="32" y1="111" x2="52" y2="111"/><line x1="42" y1="98" x2="42" y2="124"/></g>
    <rect x="140" y="94" width="18" height="30" fill="#ffffff"/><g stroke="#aab3cf" stroke-width="0.6"><line x1="140" y1="107" x2="158" y2="107"/><line x1="149" y1="94" x2="149" y2="124"/></g>
    <circle cx="172" cy="116" r="6"/><line x1="172" y1="122" x2="172" y2="124"/><line x1="20" y1="124" x2="186" y2="124" stroke-width="2"/>
  </svg>
<text x="192" y="368" font-size="19" font-weight="700" fill="#1a2a6c" text-anchor="middle" letter-spacing="6">G밸리 직주근접</text>
<text x="192" y="393" font-size="19" font-weight="700" fill="#1a2a6c" text-anchor="middle" letter-spacing="2.5">서남권 최고 랜드마크</text>
<text x="500" y="258" font-size="24" fill="#333">이사</text>
<text x="565" y="263" font-size="46" font-weight="900" fill="#111" letter-spacing="11">박 은 경</text>
<text class="brand" x="500" y="332" font-size="28" fill="#1a2a6c">P</text><text x="532" y="332" font-size="25" fill="#222">010.2796.1961</text>
<text class="brand" x="500" y="374" font-size="28" fill="#1a2a6c">E</text><text x="532" y="374" font-size="25" fill="#222">dewhelena@hanmail.net</text>
</svg>
